<?xml version="1.0" standalone="no"?>
<!DOCTYPE svg PUBLIC "-//W3C//DTD SVG 20010904//EN"
 "http://www.w3.org/TR/2001/REC-SVG-20010904/DTD/svg10.dtd">
<svg version="1.0" xmlns="http://www.w3.org/2000/svg"
 width="280.000000pt" height="280.000000pt" viewBox="0 0 280.000000 280.000000"
 preserveAspectRatio="xMidYMid meet">
<metadata>
Created by potrace 1.11, written by Peter Selinger 2001-2013
</metadata>
<g transform="translate(0.000000,280.000000) scale(0.100000,-0.100000)"
fill="#000000" stroke="none">
<path d="M1065 2735 c-121 -36 -185 -119 -172 -224 3 -31 -36 -176 -58 -211
-3 -6 -17 1 -33 15 -84 79 -242 60 -312 -37 -55 -76 -61 -165 -15 -244 40 -68
132 -116 208 -108 15 1 27 0 27 -4 0 -3 -70 -215 -156 -471 -166 -495 -171
-516 -138 -602 49 -127 203 -276 372 -361 49 -25 57 -34 41 -44 -8 -5 -9 -3
-4 6 5 8 3 11 -6 8 -8 -3 -13 -14 -11 -24 3 -18 3 -18 -11 1 -9 11 -19 16 -23
12 -5 -4 -2 -13 6 -18 12 -9 12 -10 -3 -5 -10 3 -21 6 -25 6 -3 0 4 10 16 23
17 18 19 24 8 24 -8 0 -13 -4 -11 -8 3 -4 -2 -10 -11 -13 -12 -5 -14 -1 -8 16
6 21 6 21 -10 5 -17 -17 -51 -13 -39 6 4 6 1 7 -7 2 -10 -6 -9 -11 5 -21 10
-7 22 -11 26 -8 8 5 13 -9 10 -28 0 -4 8 -10 19 -13 24 -8 25 -18 5 -35 -12
-10 -14 -8 -10 9 2 12 0 21 -4 21 -16 0 -19 -13 -9 -36 9 -18 14 -21 20 -12 6
10 10 10 17 -1 7 -10 13 -11 27 -1 16 9 16 11 2 6 -10 -3 -20 -1 -22 3 -9 15
6 21 26 10 13 -7 17 -16 12 -31 -4 -14 -2 -18 5 -14 6 4 11 16 11 28 0 14 5
18 16 14 9 -3 18 -6 20 -6 3 0 2 -5 -1 -10 -3 -6 3 -11 14 -11 37 -2 40 -4 56
-24 16 -20 16 -20 6 1 -6 12 -7 25 -3 29 4 5 2 5 -4 2 -6 -3 -11 0 -11 8 0 9
6 11 16 6 9 -4 27 -6 41 -5 14 1 28 -3 32 -9 3 -6 17 -11 30 -12 18 -1 23 -8
23 -28 -1 -14 3 -23 8 -20 5 3 7 16 4 29 -2 14 0 27 4 30 5 3 9 -1 9 -9 0 -8
7 -20 15 -27 11 -9 19 -6 42 16 18 18 22 26 10 21 -9 -3 -17 -2 -17 3 0 12 27
13 34 2 6 -11 36 -9 55 2 8 5 16 4 21 -4 5 -9 13 -9 27 -1 11 5 24 7 28 3 5
-4 5 1 2 11 -4 11 -3 16 4 12 6 -4 8 -13 5 -20 -3 -8 -2 -16 2 -18 4 -2 1 -2
-6 0 -7 1 -10 -2 -7 -8 4 -5 16 -7 28 -4 21 6 22 6 3 -9 -11 -9 -15 -16 -9
-16 7 0 15 5 18 10 10 16 22 12 27 -8 6 -23 54 -23 51 -1 -2 9 6 15 17 16 11
1 18 -2 15 -7 -11 -18 18 -22 31 -5 15 20 9 39 -8 29 -7 -5 -8 -2 -3 6 5 9 4
11 -4 6 -6 -4 -23 -10 -37 -12 -23 -4 -26 -2 -21 16 3 11 1 20 -3 20 -14 0
-17 -24 -6 -43 8 -14 8 -20 -4 -27 -11 -7 -17 -4 -21 8 -4 9 -2 19 2 20 5 2 7
7 4 11 -2 5 2 16 9 26 16 22 38 12 29 -13 -6 -15 -5 -15 10 -3 10 8 20 11 24
7 3 -3 17 1 30 9 13 9 23 12 23 8 0 -5 8 -13 18 -19 16 -10 18 -8 19 22 1 19
-3 37 -8 40 -5 3 -9 11 -9 17 0 7 4 6 10 -3 8 -12 10 -12 10 -1 0 9 4 10 13 4
6 -6 20 -9 30 -8 10 2 14 -1 11 -7 -5 -7 -2 -8 7 -4 8 4 6 1 -5 -8 -26 -21
-15 -40 23 -42 24 -1 31 2 27 13 -4 8 -6 17 -6 19 0 2 -5 4 -11 4 -5 0 -7 -4
-4 -10 3 -5 1 -10 -4 -10 -13 0 -14 10 -1 30 5 8 10 11 10 5 0 -5 7 -1 15 9 8
11 15 14 15 7 0 -7 5 -9 10 -6 5 3 10 11 10 17 0 6 -3 8 -7 5 -3 -4 -12 1 -20
11 -12 16 -13 15 -6 -3 6 -17 5 -18 -9 -7 -13 10 -17 10 -22 -5 -7 -16 -9 -15
-27 7 -15 20 -18 21 -12 5 6 -17 4 -18 -8 -8 -12 9 -18 10 -27 1 -8 -8 -13 -7
-17 5 -4 9 -13 13 -21 10 -20 -8 -17 -23 4 -17 13 4 14 3 4 -4 -16 -11 -14
-23 4 -37 10 -7 11 -14 3 -25 -9 -13 -10 -13 -6 2 8 22 -15 29 -31 9 -11 -14
-11 -14 -6 1 3 10 1 18 -4 18 -6 0 -13 -8 -15 -18 -2 -10 -3 -8 -2 5 3 31 -7
44 -25 33 -10 -7 -11 -10 -2 -10 6 0 12 -5 12 -11 0 -8 -4 -8 -14 0 -7 6 -21
9 -30 5 -18 -7 -23 20 -6 31 6 4 7 -1 4 -12 -4 -13 -3 -15 4 -5 5 8 12 13 16
13 19 -3 29 0 23 6 -4 3 -1 13 6 22 10 14 10 14 -4 4 -9 -7 -19 -10 -23 -6 -4
4 -4 -1 0 -12 5 -16 4 -18 -6 -8 -7 6 -19 9 -28 5 -11 -4 -7 6 10 29 14 19 57
78 97 132 l72 97 42 -28 c193 -133 436 -148 640 -40 91 48 203 164 249 258
129 266 63 560 -170 748 -24 20 -39 39 -35 47 2 8 27 28 54 46 161 103 130
287 -85 504 -209 210 -540 391 -856 467 -101 24 -286 31 -345 13z m-198 -2290
c0 -8 -5 -11 -10 -8 -7 4 -8 -1 -3 -13 5 -14 4 -16 -4 -8 -6 6 -8 18 -4 27 8
21 21 22 21 2z m510 -10 c-4 -8 -2 -17 3 -20 6 -4 10 -10 10 -16 0 -5 -9 0
-20 11 -20 20 -19 40 2 40 5 0 8 -7 5 -15z m273 7 c0 -5 -7 -9 -15 -9 -8 0
-12 4 -9 9 3 4 9 8 15 8 5 0 9 -4 9 -8z m-764 -37 c-1 -8 -5 -17 -8 -21 -5 -4
-4 16 1 34 3 9 9 -1 7 -13z m-52 -7 c-3 -4 -9 -8 -15 -8 -5 0 -9 4 -9 8 0 5 7
9 15 9 8 0 12 -4 9 -9z m516 8 c0 -2 -7 -7 -16 -10 -8 -3 -12 -2 -9 4 6 10 25
14 25 6z m91 -13 c13 -17 13 -17 -6 -3 -11 8 -22 16 -24 17 -2 2 0 3 6 3 6 0
17 -8 24 -17z m-174 -8 c0 -8 -4 -12 -9 -9 -5 3 -6 10 -3 15 9 13 12 11 12 -6z
m-72 -13 c-3 -3 -11 0 -18 7 -9 10 -8 11 6 5 10 -3 15 -9 12 -12z m35 14 c0
-3 -4 -8 -10 -11 -5 -3 -10 -1 -10 4 0 6 5 11 10 11 6 0 10 -2 10 -4z m140
-39 c0 -5 -6 -7 -12 -4 -7 2 -12 12 -10 22 2 11 -1 14 -9 9 -8 -5 -10 -3 -4 6
6 10 11 9 22 -5 7 -11 13 -23 13 -28z m-461 10 c0 -9 -2 -8 -6 1 -2 6 -10 9
-15 6 -7 -4 -8 -2 -4 5 9 13 26 5 25 -12z m216 14 c-3 -2 0 -10 5 -16 7 -9 6
-16 -5 -25 -15 -12 -16 -11 -19 23 -1 6 -5 15 -11 19 -5 4 0 6 12 5 12 0 20
-3 18 -6z m-75 -13 c0 -4 -4 -8 -9 -8 -6 0 -12 4 -15 8 -3 5 1 9 9 9 8 0 15
-4 15 -9z m433 -35 c-3 -7 -8 -13 -12 -13 -4 0 -8 6 -8 13 0 8 6 14 13 14 7 0
10 -6 7 -14z"/>
<path d="M637 2592 c-22 -24 -21 -45 2 -66 41 -37 97 14 66 60 -18 29 -46 31
-68 6z"/>
<path d="M1476 486 c3 -9 1 -16 -5 -16 -16 0 -14 -16 5 -34 21 -21 40 -9 21
12 -8 10 -12 22 -10 29 2 6 -1 14 -6 18 -7 3 -8 0 -5 -9z m15 -43 c13 -16 12
-17 -3 -4 -17 13 -22 21 -14 21 2 0 10 -8 17 -17z"/>
<path d="M1601 483 c7 -12 15 -20 18 -17 3 2 -3 12 -13 22 -17 16 -18 16 -5
-5z"/>
<path d="M616 477 c3 -10 9 -15 12 -12 3 3 0 11 -7 18 -10 9 -11 8 -5 -6z"/>
<path d="M1735 480 c-3 -5 -1 -10 4 -10 6 0 11 5 11 10 0 6 -2 10 -4 10 -3 0
-8 -4 -11 -10z"/>
<path d="M581 460 c7 -13 12 -33 13 -45 1 -11 8 -21 16 -21 8 -1 21 -2 28 -3
7 0 10 -6 7 -11 -4 -6 -1 -9 7 -8 7 2 12 -2 11 -9 -2 -7 4 -10 12 -6 14 5 13
7 -2 18 -15 11 -14 13 10 13 14 0 26 -3 25 -7 0 -3 1 -9 2 -13 1 -5 3 -13 4
-20 0 -6 8 -13 16 -15 13 -4 13 -3 0 6 -8 6 -11 11 -6 11 5 0 4 6 -1 13 -8 11
-10 29 -3 42 13 26 -2 45 -38 45 -15 0 -21 4 -16 12 4 6 -3 4 -15 -5 -25 -17
-48 -13 -69 12 -11 13 -11 12 -1 -9z m107 -24 c19 1 20 -1 10 -14 -11 -13 -10
-15 7 -9 20 7 20 7 1 -8 -14 -11 -23 -12 -33 -4 -9 8 -13 8 -13 1 0 -6 -7 -9
-15 -6 -8 4 -15 10 -15 16 0 5 4 7 9 3 5 -3 12 -1 15 4 4 5 -2 8 -11 6 -10 -2
-22 -4 -26 -4 -5 -1 -5 -5 -2 -11 3 -5 2 -10 -4 -10 -5 0 -9 9 -8 20 1 15 7
19 24 15 13 -2 23 1 23 8 0 8 3 8 8 2 4 -6 17 -10 30 -9z"/>
<path d="M670 421 c0 -6 4 -12 8 -15 5 -3 9 1 9 9 0 8 -4 15 -9 15 -4 0 -8 -4
-8 -9z"/>
<path d="M544 451 c0 -11 5 -17 13 -14 10 4 11 9 2 19 -15 18 -15 18 -15 -5z"/>
<path d="M1705 451 c2 -13 -2 -21 -11 -22 -8 -1 -18 -3 -24 -4 -5 -1 -12 -3
-15 -4 -3 0 -1 -10 5 -21 7 -14 8 -26 1 -38 -7 -11 -10 -13 -11 -3 0 10 -3 11
-14 2 -11 -9 -15 -9 -19 1 -4 10 -6 10 -6 1 -1 -7 -6 -13 -11 -13 -5 0 -9 5
-7 11 1 6 -4 14 -12 17 -8 2 -11 0 -7 -6 12 -20 -26 -31 -51 -15 -13 9 -27 13
-31 9 -4 -4 1 -12 11 -18 17 -9 17 -11 2 -34 -8 -13 -11 -24 -5 -24 5 0 10 5
10 11 0 8 4 9 13 0 17 -14 28 -4 19 17 -5 15 -4 15 11 3 10 -8 20 -11 24 -8 3
3 18 0 33 -8 26 -13 28 -12 49 16 13 17 25 28 28 25 4 -3 -2 -15 -12 -26 -17
-18 -17 -20 -2 -14 9 3 17 10 17 16 0 5 4 6 10 3 6 -4 7 1 3 12 -6 16 -5 16
11 4 17 -14 16 -16 -4 -31 l-21 -16 23 -19 c23 -20 23 -20 6 0 -16 20 -16 21
2 33 27 16 35 15 20 -3 -9 -10 -9 -15 -1 -15 10 0 15 13 12 33 0 4 4 7 9 7 5
0 10 -4 10 -10 0 -5 6 -10 13 -10 6 1 1 10 -12 20 -13 11 -17 20 -10 20 7 0
22 -8 33 -17 20 -17 20 -17 7 0 -12 15 -11 17 7 14 24 -3 42 -17 24 -17 -7 0
-12 -8 -12 -17 0 -13 6 -10 19 11 11 17 17 34 14 40 -4 5 1 7 11 3 9 -4 15 -3
12 2 -3 5 1 11 9 15 22 8 18 -11 -5 -31 -21 -18 -27 -43 -10 -43 5 0 6 8 3 18
-6 15 -5 15 10 3 9 -7 14 -18 10 -24 -3 -6 -1 -7 6 -3 9 6 9 11 1 21 -16 20
-2 42 26 39 13 -1 24 2 24 7 0 5 -5 9 -11 9 -5 0 -7 5 -3 11 4 8 11 7 21 -3
18 -19 7 -49 -15 -41 -14 5 -15 4 -4 -8 11 -12 16 -10 32 11 17 22 17 25 2 38
-15 11 -14 12 8 6 14 -3 22 -3 18 1 -7 7 -38 14 -76 17 -7 1 -10 8 -7 17 3 8
3 12 -1 8 -9 -9 -35 13 -28 24 3 5 0 9 -5 9 -14 0 -14 -13 1 -28 7 -7 8 -12 2
-12 -6 0 -15 5 -22 12 -9 9 -15 9 -24 0 -20 -20 -32 -13 -13 8 25 28 11 25
-16 -2 -21 -22 -22 -22 -17 -2 3 13 0 21 -9 21 -9 0 -11 -7 -8 -21 6 -21 6
-21 -9 -2 -9 11 -16 14 -16 8 0 -9 -7 -8 -25 4 -23 15 -24 15 -20 -5z m29 -8
c4 -5 12 -9 17 -9 5 -1 11 -3 14 -4 3 -1 13 -3 23 -4 9 -1 27 -7 39 -14 23
-13 43 1 22 14 -8 5 -9 3 -4 -6 5 -9 4 -11 -4 -6 -20 13 -2 27 20 16 11 -6 23
-8 28 -5 5 3 13 -4 16 -16 6 -17 9 -19 16 -8 6 10 8 7 6 -9 -2 -26 -12 -29
-21 -6 -4 11 -10 13 -23 5 -12 -6 -24 -6 -38 1 -18 10 -19 10 -6 -5 7 -10 9
-17 4 -17 -6 0 -15 10 -22 23 -6 12 -9 14 -6 4 3 -10 1 -15 -5 -12 -6 3 -10 4
-10 1 0 -3 12 -12 28 -20 25 -13 25 -15 5 -13 -13 1 -23 5 -23 10 0 5 -8 3
-17 -4 -11 -10 -14 -10 -9 -1 9 15 4 15 -29 0 -18 -8 -22 -14 -13 -20 9 -5 10
-8 1 -8 -6 0 -19 10 -27 22 -9 12 -16 17 -16 10 0 -7 -4 -11 -9 -8 -5 4 -21
-7 -34 -24 -22 -25 -28 -28 -39 -17 -7 8 -23 12 -35 11 -27 -4 -39 11 -16 20
9 4 20 2 23 -5 5 -7 10 -8 14 -1 3 6 17 9 31 7 14 -1 29 3 33 10 4 6 15 14 24
18 11 4 15 12 12 22 -3 8 -10 12 -15 9 -5 -3 -6 -10 -3 -16 4 -7 2 -8 -5 -4
-9 6 -9 11 0 22 6 7 14 12 18 10 3 -2 11 2 18 9 10 11 10 15 0 18 -7 3 -7 6
-1 6 6 1 14 -2 18 -6z m-199 -123 c1 -10 -2 -17 -6 -14 -4 2 -7 13 -6 24 2 23
10 17 12 -10z"/>
<path d="M1721 416 c-5 -6 -8 -21 -6 -31 2 -11 4 -24 4 -30 1 -5 5 -4 10 3 4
8 11 13 15 13 20 -3 26 0 21 9 -8 13 8 13 23 0 6 -6 10 -7 7 -4 -2 4 0 15 5
24 8 15 6 18 -8 15 -9 -1 -21 0 -27 4 -18 10 -34 9 -44 -3z m41 -9 c-1 -4 -5
-13 -8 -20 -8 -22 -31 -16 -28 7 1 12 3 22 3 23 3 5 36 -5 33 -10z"/>
<path d="M1736 398 c3 -5 10 -6 15 -3 13 9 11 12 -6 12 -8 0 -12 -4 -9 -9z"/>
<path d="M1865 400 c-3 -6 1 -7 9 -4 18 7 21 14 7 14 -6 0 -13 -4 -16 -10z"/>
<path d="M1620 326 c7 -7 13 -7 20 0 6 6 3 10 -10 10 -13 0 -16 -4 -10 -10z"/>
<path d="M1959 453 c-13 -17 -13 -17 6 -3 11 8 22 16 24 17 2 2 0 3 -6 3 -6 0
-17 -8 -24 -17z"/>
<path d="M2076 462 c-3 -5 1 -9 9 -9 8 0 12 4 9 9 -3 4 -7 8 -9 8 -2 0 -6 -4
-9 -8z"/>
<path d="M2234 448 l-19 -23 23 19 c21 18 27 26 19 26 -2 0 -12 -10 -23 -22z"/>
<path d="M515 450 c3 -5 8 -10 11 -10 2 0 4 5 4 10 0 6 -5 10 -11 10 -5 0 -7
-4 -4 -10z"/>
<path d="M1930 443 c6 -13 18 -23 28 -22 14 0 14 2 2 6 -8 4 -21 13 -28 22
-11 14 -11 13 -2 -6z"/>
<path d="M457 435 c-4 -8 -3 -16 1 -19 4 -3 9 4 9 15 2 23 -3 25 -10 4z"/>
<path d="M1983 437 c-3 -5 0 -14 6 -20 9 -9 10 -7 5 7 -5 13 -4 17 4 12 6 -3
13 -3 16 2 3 5 -2 9 -10 9 -8 0 -17 -4 -21 -10z"/>
<path d="M1557 423 c10 -3 10 -10 2 -25 -8 -15 -8 -23 2 -32 8 -6 11 -7 7 -2
-4 5 -1 18 7 30 20 27 19 32 -7 33 -13 0 -17 -1 -11 -4z"/>
<path d="M2015 419 c-4 -6 -4 -13 -1 -16 3 -4 6 -1 6 6 0 7 5 9 12 5 7 -4 8
-3 4 4 -9 15 -13 15 -21 1z"/>
<path d="M2067 415 c3 -8 9 -12 14 -9 12 7 11 11 -5 17 -10 4 -13 1 -9 -8z"/>
<path d="M510 400 c0 -5 5 -10 10 -10 6 0 10 5 10 10 0 6 -4 10 -10 10 -5 0
-10 -4 -10 -10z"/>
<path d="M570 401 c0 -6 4 -13 10 -16 6 -3 7 1 4 9 -7 18 -14 21 -14 7z"/>
<path d="M2045 400 c-3 -5 -1 -10 5 -10 6 0 8 -5 4 -12 -4 -7 -3 -8 4 -4 6 4
9 13 5 21 -6 18 -10 19 -18 5z"/>
<path d="M2094 398 c-4 -7 -3 -10 1 -5 5 4 18 -1 29 -10 21 -18 21 -18 2 5
-22 26 -23 26 -32 10z"/>
<path d="M2236 402 c-3 -5 1 -9 9 -9 8 0 12 4 9 9 -3 4 -7 8 -9 8 -2 0 -6 -4
-9 -8z"/>
<path d="M2005 380 c-3 -5 -2 -10 4 -10 5 0 13 5 16 10 3 6 2 10 -4 10 -5 0
-13 -4 -16 -10z"/>
<path d="M612 371 c-11 -7 -11 -9 0 -14 9 -3 15 1 15 9 0 8 -1 14 -1 14 -1 0
-7 -4 -14 -9z"/>
<path d="M2093 363 c1 -17 4 -19 14 -11 15 12 18 22 4 14 -5 -4 -11 0 -14 6
-3 7 -4 3 -4 -9z"/>
<path d="M555 359 c-3 -4 2 -6 10 -5 21 3 28 13 10 13 -9 0 -18 -4 -20 -8z"/>
<path d="M2020 360 c-9 -6 -10 -10 -3 -10 6 0 15 5 18 10 8 12 4 12 -15 0z"/>
<path d="M2065 359 c-4 -6 -5 -12 -2 -15 2 -3 7 2 10 11 7 17 1 20 -8 4z"/>
<path d="M953 347 c-6 -10 16 -37 31 -37 6 0 3 5 -6 11 -10 5 -18 15 -18 21 0
7 4 7 13 1 17 -14 58 -23 51 -12 -3 5 -12 9 -20 9 -8 0 -13 4 -10 8 2 4 -4 8
-15 8 -11 0 -23 -4 -26 -9z"/>
<path d="M1229 354 c-1 -5 -1 -12 0 -16 1 -10 -13 -10 -23 -1 -14 15 -36 10
-42 -9 -3 -11 -3 -22 0 -25 3 -4 6 1 6 11 0 18 29 19 43 1 6 -6 10 -5 14 3 4
10 8 10 19 1 11 -9 18 -9 29 1 10 9 15 9 15 1 0 -6 5 -11 11 -11 8 0 8 4 -1
15 -6 8 -9 19 -5 26 6 8 2 8 -14 -1 -12 -6 -19 -16 -15 -22 4 -6 1 -9 -7 -6
-8 3 -14 10 -14 16 0 13 -15 28 -16 16z"/>
<path d="M1990 355 c0 -5 5 -17 10 -25 5 -8 10 -10 10 -5 0 6 -5 17 -10 25 -5
8 -10 11 -10 5z"/>
<path d="M1910 345 c0 -5 5 -17 10 -25 5 -8 10 -10 10 -5 0 6 -5 17 -10 25 -5
8 -10 11 -10 5z"/>
<path d="M2035 341 c-6 -11 13 -26 22 -17 4 3 1 6 -6 6 -7 0 -9 5 -6 10 3 6 4
10 1 10 -3 0 -7 -4 -11 -9z"/>
<path d="M2147 339 c7 -7 15 -10 18 -7 3 3 -2 9 -12 12 -14 6 -15 5 -6 -5z"/>
<path d="M686 318 c3 -5 10 -6 15 -3 13 9 11 12 -6 12 -8 0 -12 -4 -9 -9z"/>
<path d="M820 320 c-9 -6 -10 -10 -3 -10 6 0 15 5 18 10 8 12 4 12 -15 0z"/>
<path d="M900 320 c0 -5 5 -10 11 -10 5 0 8 -4 5 -8 -3 -5 1 -9 9 -9 13 0 12
4 -2 19 -18 21 -23 22 -23 8z"/>
<path d="M2077 315 c-4 -8 -3 -16 1 -19 4 -3 9 4 9 15 2 23 -3 25 -10 4z"/>
<path d="M874 306 c1 -8 5 -18 8 -22 4 -3 5 1 4 10 -1 8 -5 18 -8 22 -4 3 -5
-1 -4 -10z"/>
<path d="M840 295 c-7 -9 -11 -17 -9 -20 3 -2 10 5 17 15 14 24 10 26 -8 5z"/>
<path d="M1095 303 c3 -3 -2 -14 -11 -24 -10 -11 -12 -19 -4 -24 6 -4 9 -1 8
7 -2 7 2 12 9 11 12 -2 12 23 0 32 -4 3 -5 2 -2 -2z"/>
<path d="M1139 308 c-7 -23 -4 -35 7 -35 9 0 11 4 4 12 -5 7 -7 15 -3 18 3 4
3 7 0 7 -4 0 -7 -1 -8 -2z"/>
<path d="M1353 292 c0 -12 5 -22 9 -22 11 0 10 12 -2 30 -7 12 -9 10 -7 -8z"/>
<path d="M1790 300 c-11 -7 -11 -10 -2 -10 8 0 10 -5 6 -12 -4 -7 -3 -9 1 -5
7 6 17 37 12 37 -1 0 -9 -5 -17 -10z"/>
<path d="M1940 305 c0 -2 6 -8 13 -14 10 -8 14 -7 14 2 0 8 -6 14 -14 14 -7 0
-13 -1 -13 -2z"/>
<path d="M1986 298 c3 -5 10 -6 15 -3 13 9 11 12 -6 12 -8 0 -12 -4 -9 -9z"/>
<path d="M1195 290 c-3 -5 -1 -10 4 -10 6 0 11 5 11 10 0 6 -2 10 -4 10 -3 0
-8 -4 -11 -10z"/>
<path d="M1230 296 c0 -2 7 -9 15 -16 13 -11 14 -10 9 4 -5 14 -24 23 -24 12z"/>
<path d="M1270 290 c0 -5 7 -7 15 -4 8 4 15 8 15 10 0 2 -7 4 -15 4 -8 0 -15
-4 -15 -10z"/>
<path d="M1435 291 c-3 -5 -2 -12 3 -15 5 -3 9 1 9 9 0 17 -3 19 -12 6z"/>
<path d="M1566 291 c-19 -7 -19 -8 0 -13 13 -3 21 0 21 8 0 8 -1 14 -1 13 -1
0 -10 -4 -20 -8z"/>
<path d="M1670 281 c0 -6 4 -13 10 -16 6 -3 7 1 4 9 -7 18 -14 21 -14 7z"/>
<path d="M1393 265 c0 -8 4 -12 9 -9 5 3 6 10 3 15 -9 13 -12 11 -12 -6z"/>
<path d="M1187 259 c7 -7 15 -10 18 -7 3 3 -2 9 -12 12 -14 6 -15 5 -6 -5z"/>
<path d="M1427 259 c7 -7 15 -10 18 -7 3 3 -2 9 -12 12 -14 6 -15 5 -6 -5z"/>
<path d="M1510 259 c0 -5 5 -7 10 -4 6 3 10 8 10 11 0 2 -4 4 -10 4 -5 0 -10
-5 -10 -11z"/>
<path d="M1547 259 c7 -7 15 -10 18 -7 3 3 -2 9 -12 12 -14 6 -15 5 -6 -5z"/>
<path d="M1355 249 c-4 -6 -5 -12 -2 -15 2 -3 7 2 10 11 7 17 1 20 -8 4z"/>
<path d="M1510 216 c0 -2 8 -10 18 -17 15 -13 16 -12 3 4 -13 16 -21 21 -21
13z"/>
</g>
</svg>
